<svg width="149" height="150" viewBox="0 0 149 150" fill="none" xmlns="http://www.w3.org/2000/svg">
<path d="M81.2781 121.372H68.2463C57.382 121.372 48.5772 113.232 48.5772 103.188V90.865C48.5772 87.5723 45.6902 84.8949 42.1198 84.8949H28.7912C17.9268 84.8949 9.12207 76.7547 9.12207 66.7103V54.662C9.12207 44.6177 17.9268 36.4774 28.7912 36.4774H36.4358C39.2418 36.4774 41.5172 38.581 41.5172 41.1753C41.5172 43.7695 39.2418 45.8732 36.4358 45.8732H28.7912C23.5389 45.8732 19.2759 49.8144 19.2759 54.6703V66.7186C19.2759 71.5745 23.5389 75.5157 28.7912 75.5157H42.1198C51.2933 75.5157 58.74 82.3921 58.74 90.8816V103.204C58.74 108.06 63.003 112.001 68.2553 112.001H81.2871C86.5394 112.001 90.8024 108.06 90.8024 103.204V94.0912C90.8024 86.3999 87.5646 79.166 81.6828 73.728L60.6917 54.3128C52.8942 47.0955 48.5952 37.5084 48.5952 27.3061V18.1846C48.5952 8.14027 57.4 0 68.2643 0H81.2961C92.1604 0 100.965 8.14027 100.965 18.1846V30.5073C100.965 33.8 103.852 36.4774 107.423 36.4774H120.751C131.616 36.4774 140.42 44.6177 140.42 54.662V66.7103C140.42 76.7547 131.616 84.8949 120.751 84.8949H113.116C110.31 84.8949 108.034 82.7913 108.034 80.197C108.034 77.6028 110.31 75.4991 113.116 75.4991H120.751C126.003 75.4991 130.266 71.5579 130.266 66.702V54.6537C130.266 49.7978 126.003 45.8566 120.751 45.8566H107.405C98.2311 45.8566 90.7934 38.9802 90.7934 30.499V18.1846C90.7934 13.3288 86.5304 9.3875 81.2781 9.3875H68.2463C62.994 9.3875 58.731 13.3204 58.731 18.1846V27.2978C58.731 34.989 61.9687 42.223 67.8506 47.6609L88.8418 67.0678C96.6482 74.2768 100.938 83.8722 100.938 94.0746V103.188C100.947 113.224 92.1424 121.372 81.2781 121.372Z" fill="white"/>
<path d="M7.512 145.112C6.168 145.112 4.88 144.936 3.648 144.584C2.416 144.216 1.424 143.744 0.672 143.168L1.992 140.24C2.712 140.752 3.56 141.176 4.536 141.512C5.528 141.832 6.528 141.992 7.536 141.992C8.304 141.992 8.92 141.92 9.384 141.776C9.864 141.616 10.216 141.4 10.44 141.128C10.664 140.856 10.776 140.544 10.776 140.192C10.776 139.744 10.6 139.392 10.248 139.136C9.896 138.864 9.432 138.648 8.856 138.488C8.28 138.312 7.64 138.152 6.936 138.008C6.248 137.848 5.552 137.656 4.848 137.432C4.16 137.208 3.528 136.92 2.952 136.568C2.376 136.216 1.904 135.752 1.536 135.176C1.184 134.6 1.008 133.864 1.008 132.968C1.008 132.008 1.264 131.136 1.776 130.352C2.304 129.552 3.088 128.92 4.128 128.456C5.184 127.976 6.504 127.736 8.088 127.736C9.144 127.736 10.184 127.864 11.208 128.12C12.232 128.36 13.136 128.728 13.92 129.224L12.72 132.176C11.936 131.728 11.152 131.4 10.368 131.192C9.584 130.968 8.816 130.856 8.064 130.856C7.312 130.856 6.696 130.944 6.216 131.12C5.736 131.296 5.392 131.528 5.184 131.816C4.976 132.088 4.872 132.408 4.872 132.776C4.872 133.208 5.048 133.56 5.4 133.832C5.752 134.088 6.216 134.296 6.792 134.456C7.368 134.616 8 134.776 8.688 134.936C9.392 135.096 10.088 135.28 10.776 135.488C11.48 135.696 12.12 135.976 12.696 136.328C13.272 136.68 13.736 137.144 14.088 137.72C14.456 138.296 14.64 139.024 14.64 139.904C14.64 140.848 14.376 141.712 13.848 142.496C13.32 143.28 12.528 143.912 11.472 144.392C10.432 144.872 9.112 145.112 7.512 145.112ZM18.4303 149.672C17.7583 149.672 17.0943 149.568 16.4383 149.36C15.7823 149.152 15.2463 148.864 14.8303 148.496L16.1983 145.832C16.4863 146.088 16.8143 146.288 17.1823 146.432C17.5663 146.576 17.9423 146.648 18.3103 146.648C18.8383 146.648 19.2543 146.52 19.5583 146.264C19.8783 146.024 20.1663 145.616 20.4223 145.04L21.0943 143.456L21.3823 143.048L26.0143 131.912H29.6143L23.7823 145.616C23.3663 146.656 22.8863 147.472 22.3423 148.064C21.8143 148.656 21.2223 149.072 20.5663 149.312C19.9263 149.552 19.2143 149.672 18.4303 149.672ZM20.6383 145.328L14.8783 131.912H18.7423L23.2063 142.712L20.6383 145.328ZM47.6781 131.72C48.7021 131.72 49.6061 131.928 50.3901 132.344C51.1901 132.744 51.8141 133.368 52.2621 134.216C52.7261 135.048 52.9581 136.12 52.9581 137.432V144.824H49.2141V138.008C49.2141 136.968 48.9981 136.2 48.5661 135.704C48.1341 135.208 47.5261 134.96 46.7421 134.96C46.1981 134.96 45.7101 135.088 45.2781 135.344C44.8461 135.584 44.5101 135.952 44.2701 136.448C44.0301 136.944 43.9101 137.576 43.9101 138.344V144.824H40.1661V138.008C40.1661 136.968 39.9501 136.2 39.5181 135.704C39.1021 135.208 38.5021 134.96 37.7181 134.96C37.1741 134.96 36.6861 135.088 36.2541 135.344C35.8221 135.584 35.4861 135.952 35.2461 136.448C35.0061 136.944 34.8861 137.576 34.8861 138.344V144.824H31.1421V131.912H34.7181V135.44L34.0461 134.408C34.4941 133.528 35.1261 132.864 35.9421 132.416C36.7741 131.952 37.7181 131.72 38.7741 131.72C39.9581 131.72 40.9901 132.024 41.8701 132.632C42.7661 133.224 43.3581 134.136 43.6461 135.368L42.3261 135.008C42.7581 134 43.4461 133.2 44.3901 132.608C45.3501 132.016 46.4461 131.72 47.6781 131.72ZM63.9459 145.016C62.8579 145.016 61.9059 144.776 61.0899 144.296C60.2739 143.816 59.6339 143.088 59.1699 142.112C58.7219 141.12 58.4979 139.872 58.4979 138.368C58.4979 136.848 58.7139 135.6 59.1459 134.624C59.5779 133.648 60.2019 132.92 61.0179 132.44C61.8339 131.96 62.8099 131.72 63.9459 131.72C65.1619 131.72 66.2499 132 67.2099 132.56C68.1859 133.104 68.9539 133.872 69.5139 134.864C70.0899 135.856 70.3779 137.024 70.3779 138.368C70.3779 139.728 70.0899 140.904 69.5139 141.896C68.9539 142.888 68.1859 143.656 67.2099 144.2C66.2499 144.744 65.1619 145.016 63.9459 145.016ZM56.3139 149.48V131.912H59.8899V134.552L59.8179 138.392L60.0579 142.208V149.48H56.3139ZM63.2979 141.944C63.9219 141.944 64.4739 141.8 64.9539 141.512C65.4499 141.224 65.8419 140.816 66.1299 140.288C66.4339 139.744 66.5859 139.104 66.5859 138.368C66.5859 137.616 66.4339 136.976 66.1299 136.448C65.8419 135.92 65.4499 135.512 64.9539 135.224C64.4739 134.936 63.9219 134.792 63.2979 134.792C62.6739 134.792 62.1139 134.936 61.6179 135.224C61.1219 135.512 60.7299 135.92 60.4419 136.448C60.1539 136.976 60.0099 137.616 60.0099 138.368C60.0099 139.104 60.1539 139.744 60.4419 140.288C60.7299 140.816 61.1219 141.224 61.6179 141.512C62.1139 141.8 62.6739 141.944 63.2979 141.944ZM78.1643 145.016C76.6443 145.016 75.4603 144.632 74.6123 143.864C73.7643 143.08 73.3403 141.92 73.3403 140.384V129.056H77.0843V140.336C77.0843 140.88 77.2283 141.304 77.5163 141.608C77.8043 141.896 78.1963 142.04 78.6923 142.04C79.2843 142.04 79.7883 141.88 80.2043 141.56L81.2123 144.2C80.8283 144.472 80.3643 144.68 79.8203 144.824C79.2923 144.952 78.7403 145.016 78.1643 145.016ZM71.3483 135.08V132.2H80.3003V135.08H71.3483ZM89.0595 145.016C87.6835 145.016 86.4595 144.728 85.3875 144.152C84.3315 143.576 83.4915 142.792 82.8675 141.8C82.2595 140.792 81.9555 139.648 81.9555 138.368C81.9555 137.072 82.2595 135.928 82.8675 134.936C83.4915 133.928 84.3315 133.144 85.3875 132.584C86.4595 132.008 87.6835 131.72 89.0595 131.72C90.4195 131.72 91.6355 132.008 92.7075 132.584C93.7795 133.144 94.6195 133.92 95.2275 134.912C95.8355 135.904 96.1395 137.056 96.1395 138.368C96.1395 139.648 95.8355 140.792 95.2275 141.8C94.6195 142.792 93.7795 143.576 92.7075 144.152C91.6355 144.728 90.4195 145.016 89.0595 145.016ZM89.0595 141.944C89.6835 141.944 90.2435 141.8 90.7395 141.512C91.2355 141.224 91.6275 140.816 91.9155 140.288C92.2035 139.744 92.3475 139.104 92.3475 138.368C92.3475 137.616 92.2035 136.976 91.9155 136.448C91.6275 135.92 91.2355 135.512 90.7395 135.224C90.2435 134.936 89.6835 134.792 89.0595 134.792C88.4355 134.792 87.8755 134.936 87.3795 135.224C86.8835 135.512 86.4835 135.92 86.1795 136.448C85.8915 136.976 85.7475 137.616 85.7475 138.368C85.7475 139.104 85.8915 139.744 86.1795 140.288C86.4835 140.816 86.8835 141.224 87.3795 141.512C87.8755 141.8 88.4355 141.944 89.0595 141.944ZM98.9061 144.824V128.024H106.538C108.362 128.024 109.97 128.376 111.362 129.08C112.754 129.768 113.842 130.736 114.626 131.984C115.41 133.232 115.802 134.712 115.802 136.424C115.802 138.12 115.41 139.6 114.626 140.864C113.842 142.112 112.754 143.088 111.362 143.792C109.97 144.48 108.362 144.824 106.538 144.824H98.9061ZM102.794 141.632H106.346C107.466 141.632 108.434 141.424 109.25 141.008C110.082 140.576 110.722 139.968 111.17 139.184C111.634 138.4 111.866 137.48 111.866 136.424C111.866 135.352 111.634 134.432 111.17 133.664C110.722 132.88 110.082 132.28 109.25 131.864C108.434 131.432 107.466 131.216 106.346 131.216H102.794V141.632ZM124.614 145.016C123.238 145.016 122.014 144.728 120.942 144.152C119.886 143.576 119.046 142.792 118.422 141.8C117.814 140.792 117.51 139.648 117.51 138.368C117.51 137.072 117.814 135.928 118.422 134.936C119.046 133.928 119.886 133.144 120.942 132.584C122.014 132.008 123.238 131.72 124.614 131.72C125.974 131.72 127.19 132.008 128.262 132.584C129.334 133.144 130.174 133.92 130.782 134.912C131.39 135.904 131.694 137.056 131.694 138.368C131.694 139.648 131.39 140.792 130.782 141.8C130.174 142.792 129.334 143.576 128.262 144.152C127.19 144.728 125.974 145.016 124.614 145.016ZM124.614 141.944C125.238 141.944 125.798 141.8 126.294 141.512C126.79 141.224 127.182 140.816 127.47 140.288C127.758 139.744 127.902 139.104 127.902 138.368C127.902 137.616 127.758 136.976 127.47 136.448C127.182 135.92 126.79 135.512 126.294 135.224C125.798 134.936 125.238 134.792 124.614 134.792C123.99 134.792 123.43 134.936 122.934 135.224C122.438 135.512 122.038 135.92 121.734 136.448C121.446 136.976 121.302 137.616 121.302 138.368C121.302 139.104 121.446 139.744 121.734 140.288C122.038 140.816 122.438 141.224 122.934 141.512C123.43 141.8 123.99 141.944 124.614 141.944ZM140.437 145.016C139.045 145.016 137.805 144.736 136.717 144.176C135.629 143.6 134.773 142.808 134.149 141.8C133.541 140.792 133.237 139.648 133.237 138.368C133.237 137.072 133.541 135.928 134.149 134.936C134.773 133.928 135.629 133.144 136.717 132.584C137.805 132.008 139.045 131.72 140.437 131.72C141.797 131.72 142.981 132.008 143.989 132.584C144.997 133.144 145.741 133.952 146.221 135.008L143.317 136.568C142.981 135.96 142.557 135.512 142.045 135.224C141.549 134.936 141.005 134.792 140.413 134.792C139.773 134.792 139.197 134.936 138.685 135.224C138.173 135.512 137.765 135.92 137.461 136.448C137.173 136.976 137.029 137.616 137.029 138.368C137.029 139.12 137.173 139.76 137.461 140.288C137.765 140.816 138.173 141.224 138.685 141.512C139.197 141.8 139.773 141.944 140.413 141.944C141.005 141.944 141.549 141.808 142.045 141.536C142.557 141.248 142.981 140.792 143.317 140.168L146.221 141.752C145.741 142.792 144.997 143.6 143.989 144.176C142.981 144.736 141.797 145.016 140.437 145.016Z" fill="white"/>
</svg>
